# File created by Blade
# Date/Time:  Wed Sep 24 19:25:39 2014
# Frame Rate: 120.000 fps
#------------------------------------------------------
:FULLY-SPECIFIED
:DEGREES
3451
root -15.575871 32.411008 -5.227094 19.052726 50.675774 0.589091
Spine -14.162432 -6.239813 16.339588
Head -16.988499 -22.771191 -0.665458
LeftShoulder -4.765525 12.918376 8.704188
LeftArm 54.824705 50.001579 -50.695816
LeftForeArm 4.671330 -0.000000 27.524015
LeftHand -24.437255 -0.000000 -3.974410
LeftHandThumb1 -26.253704 0.000000 33.147579
RightShoulder -18.891172 12.402656 -34.974579
RightArm -16.094886 32.709736 38.506805
RightForeArm 23.778054 -0.000000 130.571127
RightHand -13.781794 0.000000 -3.092263
RightHandThumb1 -24.326973 -0.000000 -32.862282
LeftUpLeg -15.734389 51.323064 11.080195
LeftLeg 83.466533 -0.000000 -0.000000
LeftFoot 33.384789 25.957862 -23.693227
LeftToeBase 26.751620 -0.000000 -0.000000
RightUpLeg -18.390448 -7.399112 10.636449
RightLeg 1.580366 -0.000000 -0.000000
RightFoot -7.503814 -28.443126 -11.408746
RightToeBase -0.714232 -0.000000 0.000000
3452
root -15.580726 32.412717 -5.217815 19.099845 50.793174 0.664712
Spine -14.176543 -6.399610 16.304105
Head -16.963526 -22.762993 -0.687161
LeftShoulder -4.673398 12.829872 8.731550
LeftArm 55.229211 50.045987 -50.316550
LeftForeArm 4.625642 -0.000000 27.499007
LeftHand -24.552967 -0.000000 -3.710134
LeftHandThumb1 -26.253704 0.000000 33.147579
RightShoulder -18.924169 12.274803 -34.910744
RightArm -16.159965 32.820340 38.431354
RightForeArm 23.774824 0.000000 130.623147
RightHand -13.847541 -0.000000 -3.168756
RightHandThumb1 -24.326973 -0.000000 -32.862282
LeftUpLeg -15.627835 51.452617 11.324496
LeftLeg 83.644349 -0.000000 -0.000000
LeftFoot 33.334921 26.042303 -23.704616
LeftToeBase 26.568256 -0.000000 -0.000000
RightUpLeg -18.381242 -7.423167 10.610209
RightLeg 1.585143 -0.000000 -0.000000
RightFoot -7.506555 -28.516102 -11.393535
RightToeBase -0.727527 -0.000000 0.000000
3453
root -15.585973 32.413895 -5.207422 19.142618 50.927638 0.735188
Spine -14.197816 -6.564684 16.277298
Head -16.937568 -22.753973 -0.688200
LeftShoulder -4.569175 12.711182 8.766735
LeftArm 55.615625 50.091263 -49.961932
LeftForeArm 4.751424 -0.000000 27.459744
LeftHand -24.511227 -0.000000 -3.984166
LeftHandThumb1 -26.253704 0.000000 33.147579
RightShoulder -18.929478 12.262817 -34.888984
RightArm -16.414267 32.926402 38.265597
RightForeArm 23.949880 -0.000000 130.691875
RightHand -13.860293 -0.000000 -3.232484
RightHandThumb1 -24.326973 -0.000000 -32.862282
LeftUpLeg -15.509348 51.609937 11.600971
LeftLeg 83.824581 -0.000000 -0.000000
LeftFoot 33.197797 26.095251 -23.825054
LeftToeBase 27.015613 -0.000000 -0.000000
RightUpLeg -18.366789 -7.459827 10.596097
RightLeg 1.575717 -0.000000 -0.000000
RightFoot -7.509101 -28.587339 -11.353038
RightToeBase -0.736092 -0.000000 0.000000
3454
root -15.592597 32.415974 -5.198851 19.217972 51.076502 0.839095
Spine -14.222896 -6.745470 16.239672
Head -16.930281 -22.734534 -0.701130
LeftShoulder -4.472271 12.623337 8.782984
LeftArm 56.024498 50.118484 -49.594273
LeftForeArm 4.864564 -0.000000 27.428983
LeftHand -24.475001 -0.000000 -3.865942
LeftHandThumb1 -26.253704 0.000000 33.147579
RightShoulder -19.058195 12.090787 -34.839633
RightArm -16.355535 33.099380 38.321274
RightForeArm 24.212448 -0.000000 130.697202
RightHand -13.840656 -0.000000 -3.007420
RightHandThumb1 -24.326973 -0.000000 -32.862282
LeftUpLeg -15.436574 51.766851 11.810785
LeftLeg 83.962325 -0.000000 -0.000000
LeftFoot 33.405304 26.146826 -23.467376
LeftToeBase 26.764453 -0.000000 -0.000000
RightUpLeg -18.370727 -7.535225 10.577213
RightLeg 1.577182 -0.000000 -0.000000
RightFoot -7.506636 -28.669611 -11.375637
RightToeBase -0.647630 -0.000000 0.000000
3455
root -15.600958 32.417580 -5.191538 19.283016 51.236825 0.920312
Spine -14.250233 -6.943096 16.228119
Head -16.945983 -22.691867 -0.685584
LeftShoulder -4.386340 12.512514 8.816687
LeftArm 56.445633 50.164688 -49.208557
LeftForeArm 4.837418 -0.000000 27.414950
LeftHand -24.462771 -0.000000 -3.803452
LeftHandThumb1 -26.253704 0.000000 33.147579
RightShoulder -19.138087 12.033427 -34.827491
RightArm -16.378877 33.098340 38.346144
RightForeArm 23.997705 -0.000000 130.713206
RightHand -13.822666 -0.000000 -3.272937
RightHandThumb1 -24.326973 -0.000000 -32.862282
LeftUpLeg -15.397693 51.903308 12.041476
LeftLeg 84.186559 -0.000000 -0.000000
LeftFoot 33.228551 26.268559 -23.672366
LeftToeBase 26.854590 -0.000000 -0.000000
RightUpLeg -18.378445 -7.589051 10.568675
RightLeg 1.566883 -0.000000 -0.000000
RightFoot -7.489151 -28.767057 -11.359667
RightToeBase -0.669426 -0.000000 0.000000
3456
root -15.609300 32.419349 -5.184047 19.348127 51.412030 1.007782
Spine -14.274570 -7.146639 16.219965
Head -16.959792 -22.666816 -0.686931
LeftShoulder -4.273161 12.415834 8.833709
LeftArm 56.843735 50.166524 -48.844435
LeftForeArm 4.802047 -0.000000 27.432760
LeftHand -24.473924 -0.000000 -3.559690
LeftHandThumb1 -26.253704 0.000000 33.147579
RightShoulder -19.198980 11.969283 -34.803196
RightArm -16.459259 33.203289 38.340059
RightForeArm 23.945523 -0.000000 130.746517
RightHand -13.848826 -0.000000 -3.324946
RightHandThumb1 -24.326973 -0.000000 -32.862282
LeftUpLeg -15.358231 52.050767 12.281410
LeftLeg 84.394117 -0.000000 -0.000000
LeftFoot 33.156564 26.390005 -23.796759
LeftToeBase 26.858152 -0.000000 -0.000000
RightUpLeg -18.384927 -7.688318 10.570575
RightLeg 1.556450 -0.000000 -0.000000
RightFoot -7.487779 -28.833473 -11.341426
RightToeBase -0.654272 -0.000000 0.000000
3457
root -15.617955 32.421872 -5.178691 19.448676 51.601773 1.126739
Spine -14.313888 -7.361259 16.199668
Head -16.979884 -22.622566 -0.660624
LeftShoulder -4.160019 12.336033 8.844071
LeftArm 57.202658 50.095594 -48.554632
LeftForeArm 4.742018 0.000000 27.446959
LeftHand -24.469279 -0.000000 -3.719378
LeftHandThumb1 -26.253704 0.000000 33.147579
RightShoulder -19.244969 11.905478 -34.774428
RightArm -16.567793 33.236526 38.315899
RightForeArm 23.740947 -0.000000 130.781071
RightHand -13.830505 -0.000000 -3.835692
RightHandThumb1 -24.326973 -0.000000 -32.862282
LeftUpLeg -15.372559 52.180109 12.449325
LeftLeg 84.592944 -0.000000 -0.000000
LeftFoot 33.094756 26.464560 -23.835939
LeftToeBase 26.751985 -0.000000 -0.000000
RightUpLeg -18.398981 -7.784607 10.550533
RightLeg 1.531489 -0.000000 -0.000000
RightFoot -7.469112 -28.916855 -11.325067
RightToeBase -0.638554 -0.000000 0.000000
3458
root -15.626760 32.423091 -5.170431 19.507262 51.777882 1.207253
Spine -14.341033 -7.563339 16.204856
Head -16.992253 -22.580189 -0.659602
LeftShoulder -4.047147 12.244905 8.865672
LeftArm 57.604057 50.109716 -48.209830
LeftForeArm 4.606436 -0.000000 27.451750
LeftHand -24.450530 -0.000000 -3.348704
LeftHandThumb1 -26.253704 0.000000 33.147579
RightShoulder -19.307869 11.805521 -34.801440
RightArm -16.682454 33.441750 38.395644
RightForeArm 24.055544 0.000000 130.793820
RightHand -13.803542 0.000000 -3.584363
RightHandThumb1 -24.326973 -0.000000 -32.862282
LeftUpLeg -15.342228 52.366412 12.697118
LeftLeg 84.794859 -0.000000 -0.000000
LeftFoot 33.061602 26.556493 -23.880820
LeftToeBase 26.675457 -0.000000 -0.000000
RightUpLeg -18.402866 -7.884308 10.558448
RightLeg 1.527290 -0.000000 -0.000000
RightFoot -7.479693 -28.972876 -11.312161
RightToeBase -0.618850 -0.000000 0.000000
3459
root -15.633425 32.425653 -5.163787 19.595590 51.946063 1.298857
Spine -14.403557 -7.745734 16.213560
Head -16.984357 -22.555106 -0.669584
LeftShoulder -3.923202 12.137315 8.882555
LeftArm 57.918391 50.107654 -47.939230
LeftForeArm 4.578261 -0.000000 27.507070
LeftHand -24.411134 0.000000 -3.286800
LeftHandThumb1 -26.253704 0.000000 33.147579
RightShoulder -19.433707 11.813561 -34.825977
RightArm -16.722887 33.456777 38.433504
RightForeArm 24.067561 -0.000000 130.791849
RightHand -13.852384 -0.000000 -3.525195
RightHandThumb1 -24.326973 -0.000000 -32.862282
LeftUpLeg -15.348750 52.573003 12.889491
LeftLeg 84.974954 -0.000000 -0.000000
LeftFoot 33.031999 26.602114 -23.824533
LeftToeBase 26.756308 -0.000000 -0.000000
RightUpLeg -18.416653 -7.945134 10.544678
RightLeg 1.497755 -0.000000 -0.000000
RightFoot -7.457627 -29.054878 -11.277412
RightToeBase -0.652213 -0.000000 0.000000
3460
root -15.643012 32.427202 -5.157866 19.675371 52.111260 1.391044
Spine -14.435832 -7.936184 16.208790
Head -17.005653 -22.509843 -0.632703
LeftShoulder -3.803526 12.043121 8.918019
LeftArm 58.288283 50.101156 -47.633476
LeftForeArm 4.680057 -0.000000 27.566131
LeftHand -24.514460 -0.000000 -3.482589
LeftHandThumb1 -26.253704 0.000000 33.147579
RightShoulder -19.484280 11.757530 -34.806873
RightArm -16.813752 33.553294 38.448306
RightForeArm 23.930721 -0.000000 130.795892
RightHand -13.828013 0.000000 -3.611495
RightHandThumb1 -24.326973 -0.000000 -32.862282
LeftUpLeg -15.343057 52.781932 13.096559
LeftLeg 85.157420 -0.000000 -0.000000
LeftFoot 32.953673 26.648610 -23.906364
LeftToeBase 26.699458 -0.000000 -0.000000
RightUpLeg -18.435360 -8.020646 10.540664
RightLeg 1.489131 -0.000000 -0.000000
RightFoot -7.445103 -29.143058 -11.289466
RightToeBase -0.595558 -0.000000 0.000000
